#!OML:ASF F:\VICON\USERDATA\INSTALL\rory3\rory3.ASF
:FULLY-SPECIFIED
:DEGREES
77
root 1.0152843928701245 17.872983546273485 40.44741273652942 -3.3953725952852096 -0.895497782097689 -6.8514999426330085
lfemur -18.586732218505617 -1.5984423753749115 -13.830862178645873
ltibia 38.34456161308901
lfoot -7.640056516593071 4.583428712298008
ltoes -10.188536605102588
rfemur -1.070602410543474 5.22819687335912 30.887164015358753
rtibia 32.813905623184304
rfoot -3.2645678906245843 -8.841885144123708
rtoes 3.2221403253564436
lowerback 1.0 1.017999076187658 4.725927962558178
upperback 0.2844703785892719 2.430927410264454 1.9414105904277794
thorax -4.864492598923521 1.223280227741471 -0.7838169916085167
lowerneck -16.4813526723409 -3.2548127965777924 -1.3411124824737317
upperneck 21.44781962971186 -4.287972313227628 0.7325809301870836
head 9.720576800996067 -2.032225423740801 -0.09333700312529863
lclavicle -1.0426778547878994e-15 -3.9558414165443997e-16
lhumerus -32.87771474691192 1.1458842164596084 84.5783266802964
lradius 23.984596944795214
lwrist 7.683363439474757
lhand -27.205338194965698 23.026166099830736
lfingers nan
lthumb -0.623352875861844 52.9660957262262
rclavicle -1.1231143529289228e-15 -4.587272765392967e-16
rhumerus -26.800644414157315 -16.543143027118195 -77.66575614639116
rradius 29.288633052865983
rwrist 4.669515277429855
rhand -17.573848761903268 1.0
rfingers nan
rthumb 8.747460067257569 -8.173219083933795
78
root 1.006819462231976 17.87483831236226 40.73445089807053 -3.3511780316823705 -0.7999878840055441 -6.831342727994862
lfemur -17.593410587013473 -1.7331193413677521 -14.238797417545921
ltibia 32.87801394811142
lfoot -6.900343317935928 4.489592213757697
ltoes -11.400408382497599
rfemur -1.217884741612993 5.166481987859078 30.8126854243107
rtibia 35.58734512891409
rfoot -2.153498418182201 -10.404095627520586
rtoes 5.435187035630742
lowerback 1.0 1.038998161333261 4.636304219399406
upperback 0.2792805485837 2.4471074059274898 1.8767252732698754
thorax -4.850639593543864 1.2456081431859198 -0.7771835201843549
lowerneck -16.432147740451622 -3.2811039861889943 -1.4010437960546673
upperneck 21.48156894175668 -4.333546411864844 0.8414484761677091
head 9.729535779072368 -2.0471521246911526 -0.05525169175436709
lclavicle -1.0407174217285295e-15 -3.9449079645166783e-16
lhumerus -32.74195112025197 1.1172429000911281 84.51379201573982
lradius 24.450114679646145
lwrist 7.54338448447924
lhand -27.179338536331937 23.05803313425193
lfingers nan
lthumb -0.6168063544994211 52.95693644495868
rclavicle -1.1208582753561724e-15 -4.572316026701029e-16
rhumerus -26.71952292143513 -15.919695927635843 -77.8338095896742
rradius 29.407174911234904
rwrist 4.768646948347602
rhand -17.579285591034328 1.0
rfingers nan
rthumb 8.740313108362692 -8.27372606388084
79
root 1.0008039230815133 17.87803056947513 40.80548001662972 -3.397726096080003 -0.5753593293349373 -6.477616773074402
lfemur -16.343343519903982 -1.9159470210677225 -15.041227462036879
ltibia 28.621012395446463
lfoot -6.898394496954102 2.3218565635796855
ltoes -10.948342988297469
rfemur -1.9746845017962578 4.819898600069452 30.216225262031134
rtibia 38.755146545677455
rfoot -1.7713409285857233 -11.614593395127251
rtoes 6.939494650904652
lowerback 1.0 1.0171052354730525 4.315570619579166
upperback 0.284155915804082 2.3667867668463662 1.8189361713511767
thorax -4.825401122343155 1.2162314528755707 -0.7212315915736225
lowerneck -16.42260302123383 -3.2950366771563315 -1.4469839262713162
upperneck 21.46067518739405 -4.362211916016331 0.9638656071166071
head 9.715570174487246 -2.0550762820215183 -0.00798480349706815
lclavicle -1.0394646841861329e-15 -3.9334888957329703e-16
lhumerus -32.52254410787049 0.9003175866915621 84.42045823355215
lradius 24.902034319960837
lwrist 7.39563891187918
lhand -27.163156862645295 23.108984296034045
lfingers nan
lthumb -0.6154200334748922 52.960264072124794
rclavicle -1.1193548509671522e-15 -4.558972886790644e-16
rhumerus -26.72263013194187 -15.420639009637668 -78.1021011992913
rradius 29.440680217015178
rwrist 4.831363951794809
rhand -17.566070690430617 1.0
rfingers nan
rthumb 8.787806201104427 -8.23187982864697
80
root 0.989725234064952 17.87231177783262 40.87940988000357 -3.529712344213758 -0.26906906854104573 -6.188956527728854
lfemur -15.089220261573198 -2.211824667928809 -15.943781811527149
ltibia 26.09721531715183
lfoot -6.744691106084207 1.0702805489210008
ltoes -10.752606374860834
rfemur -3.5308126289062223 4.279293394426624 29.434894521140208
rtibia 42.50813337321138
rfoot -1.7915916432461305 -11.9123268364097
rtoes 7.951453902367584
lowerback 1.0 0.954752182239091 4.01873057077313
upperback 0.29103030083960074 2.2708065824009545 1.7968497883124253
thorax -4.817842127683505 1.1604853486711286 -0.7030834426169827
lowerneck -16.44749560865952 -3.295903026548578 -1.4729478821413027
upperneck 21.39546760432795 -4.372340750895418 1.0881767603358878
head 9.68094087335148 -2.055901183157349 0.04359677832779345
lclavicle -1.0401702495777378e-15 -3.9362266810125853e-16
lhumerus -32.19037172107684 0.6036225257114988 84.331558632529
lradius 25.35787755246471
lwrist 7.245363500429377
lhand -27.138158570038406 23.16233079301046
lfingers nan
lthumb -0.5982888822733229 52.99977333255316
rclavicle -1.1173787029315064e-15 -4.540620764149901e-16
rhumerus -26.80437153702988 -15.11046405049878 -78.43253796380276
rradius 29.388785920151623
rwrist 4.834295321693911
rhand -17.575330034192312 1.0
rfingers nan
rthumb 8.777106917088403 -8.317534658855678
81
root 0.9786091663123753 17.867007762010957 41.3975494350461 -3.500197267871757 0.1356967594217915 -5.6560522010916525
lfemur -13.717677634311823 -2.588957748824074 -17.113572288489905
ltibia 25.03772805335119
lfoot -6.912564249561321 0.3103420743084764
ltoes -10.09022196779536
rfemur -5.588952039854822 3.5919189594386904 28.23906677572367
rtibia 46.56090535249511
rfoot -2.185500261608695 -11.48937746786184
rtoes 8.794353634762977
lowerback 1.0 0.8391360281985805 3.667205775945991
upperback 0.27686001366877433 2.040153116310234 1.6986461262796877
thorax -4.85157006255333 1.037575224432838 -0.6262514730979452
lowerneck -16.517777892146842 -3.28825884252244 -1.4655662141314494
upperneck 21.30674592592999 -4.369579015546139 1.2016636977038935
head 9.639967853171402 -2.051301926236068 0.09222979386819932
lclavicle -1.042428340532162e-15 -3.9527871658265694e-16
lhumerus -31.74499469985221 0.20851286868284546 84.24358668263535
lradius 25.8248300399409
lwrist 7.077376871537773
lhand -27.096321340406053 23.226883871788488
lfingers nan
lthumb -0.572587399104765 53.02543478273041
rclavicle -1.1146274985253484e-15 -4.516877009356174e-16
rhumerus -26.9925895156293 -15.143497025876986 -78.86805731255463
rradius 29.244697209405196
rwrist 4.787964093013069
rhand -17.556289180382567 1.0
rfingers nan
rthumb 8.81318204968613 -8.275833219095833
82
root 0.9781492233808808 17.856720307512397 42.10284308281271 -3.623632027564348 0.3114709761789083 -3.842742729105022
lfemur -11.596560011115272 -2.957819876388122 -19.330463413234476
ltibia 24.52748208210325
lfoot -7.2789061120539005 1.0544558507037378
ltoes -9.480267680849458
rfemur -7.736434778928676 2.786456670619028 25.894694211882992
rtibia 50.378851002277614
rfoot -2.950163238677481 -10.41721098099212
rtoes 9.259133876411955
lowerback 1.0 0.6908353213028995 2.391167582722277
upperback 0.30762738647438415 1.5715655866132279 1.4064366750817139
thorax -4.8575429185194965 0.8372032112798329 -0.2102728646169183
lowerneck -16.618430132501008 -3.2660820431927013 -1.4258432857046492
upperneck 21.20772084363793 -4.3463938123356005 1.2920715615964817
head 9.606416125152906 -2.0382121039884624 0.13416507213327092
lclavicle -1.0442304180481265e-15 -3.962709451293917e-16
lhumerus -31.165011706885444 -0.24837583659318052 84.14775582554972
lradius 26.26850105317555
lwrist 6.869586031606472
lhand -27.05248291765152 23.257371067544693
lfingers nan
lthumb -0.5138728727253208 53.08563143429701
rclavicle -1.1134730823305095e-15 -4.503827074361865e-16
rhumerus -27.192989853229125 -15.314236801540906 -79.2811001558439
rradius 29.024333193355982
rwrist 4.714151448635394
rhand -17.561725359229182 1.0
rfingers nan
rthumb 8.77183481398296 -8.404132602080576
83
root 0.9951045709700842 17.845702440033225 43.26005609848784 -3.757972283304361 0.4734058917145316 -1.5838406341604454
lfemur -8.851590847729094 -3.371522373744571 -21.879744919229367
ltibia 23.931893632942554
lfoot -7.619277630256972 1.0041435577787432
ltoes -9.410775241049627
rfemur -10.538761116848338 1.9432859827306808 23.106408245166634
rtibia 53.92520791496099
rfoot -4.017533442954272 -8.612343096531653
rtoes 9.067531259449426
lowerback 1.0 0.49382284775432783 0.7396257296586642
upperback 0.3709505966887996 0.9356486107837649 1.0317626645416382
thorax -4.831251571859764 0.5513981854536786 0.408347389018764
lowerneck -16.720427722900187 -3.2260790425604897 -1.3916200268427699
upperneck 21.110055278256986 -4.294287505788988 1.360732299516168
head 9.585343783296036 -2.0139316529808857 0.17287974413511964
lclavicle -1.0459836741959009e-15 -3.9585104864485103e-16
lhumerus -30.477425701475237 -0.7679554541837523 84.03121051773951
lradius 26.661630264554162
lwrist 6.597827466458329
lhand -26.976170194373097 23.3192252961349
lfingers nan
lthumb -0.445140760913892 53.12945592949003
rclavicle -1.1171033363650275e-15 -4.519681055633585e-16
rhumerus -27.420903406001596 -15.65436458020584 -79.68080641587672
rradius 28.759777001478902
rwrist 4.616231413052361
rhand -17.54464184430435 1.0
rfingers nan
rthumb 8.794350794290294 -8.348637351415494
